<svg xmlns="http://www.w3.org/2000/svg" xmlns:xlink="http://www.w3.org/1999/xlink" viewBox="0 0 100 125" version="1.1" x="0px" y="0px"><title>care</title><g stroke="none" stroke-width="1" fill="none" fill-rule="evenodd"><path d="M31.7458,18 C35.9338,18 39.3418,21.407 39.3418,25.594 C39.3418,29.781 35.9338,33.188 31.7458,33.188 C27.5588,33.188 24.1518,29.781 24.1518,25.594 C24.1518,21.407 27.5588,18 31.7458,18 M31.7458,36.188 C37.5888,36.188 42.3418,31.436 42.3418,25.594 C42.3418,19.752 37.5888,15 31.7458,15 C25.9038,15 21.1518,19.752 21.1518,25.594 C21.1518,31.436 25.9038,36.188 31.7458,36.188 M31.746,38.4687 C35.812,38.4687 39.67,40.4337 42.063,43.7267 C42.551,44.3967 42.402,45.3347 41.732,45.8217 C41.064,46.3117 40.125,46.1617 39.637,45.4907 C37.805,42.9727 34.855,41.4687 31.746,41.4687 C26.403,41.4687 22.051,45.7897 22,51.1197 L26.041,81.9997 L36.175,81.9997 L37.464,74.5087 C37.605,73.6927 38.38,73.1497 39.197,73.2847 C40.013,73.4257 40.561,74.2017 40.421,75.0177 L38.917,83.7547 C38.793,84.4737 38.169,84.9997 37.438,84.9997 L24.724,84.9997 C23.971,84.9997 23.335,84.4407 23.237,83.6937 L19.012,51.4087 C19.004,51.3447 19,51.2797 19,51.2147 C19,44.1857 24.718,38.4687 31.746,38.4687 Z M68.2409,38.4682 C75.2689,38.4682 80.9879,44.1862 80.9879,51.2142 C80.9879,51.2802 80.9839,51.3442 80.9749,51.4082 L76.7509,83.6942 C76.6529,84.4412 76.0159,84.9992 75.2629,84.9992 L62.5499,84.9992 C61.8189,84.9992 61.1949,84.4742 61.0709,83.7542 L59.5669,75.0182 C59.4269,74.2012 59.9739,73.4252 60.7909,73.2842 C61.6129,73.1512 62.3839,73.6932 62.5239,74.5082 L63.8129,81.9992 L73.9469,81.9992 L77.9879,51.1192 C77.9359,45.7892 73.5839,41.4682 68.2409,41.4682 C65.1319,41.4682 62.1819,42.9722 60.3499,45.4902 C59.8639,46.1622 58.9229,46.3102 58.2559,45.8222 C57.5859,45.3342 57.4369,44.3972 57.9249,43.7272 C60.3179,40.4342 64.1749,38.4682 68.2409,38.4682 Z M54.8364,48.4997 C56.9364,48.4997 58.9874,49.3767 60.4624,50.9067 C61.9344,52.4307 62.7434,54.4517 62.7434,56.5957 C62.7434,58.7377 61.9344,60.7587 60.4634,62.2827 C59.5534,63.2257 58.6524,64.1817 57.7504,65.1387 C55.9514,67.0497 54.0914,69.0237 52.1654,70.8797 C51.5554,71.4597 50.7724,71.7467 49.9914,71.7467 C49.1664,71.7467 48.3444,71.4257 47.7314,70.7897 L39.5254,62.2827 C36.4984,59.1467 36.4984,54.0427 39.5254,50.9067 C41.0204,49.3547 43.0174,48.5007 45.1484,48.5007 C46.9294,48.5007 48.6164,49.0957 49.9954,50.1957 C51.3694,49.1087 53.0854,48.4997 54.8364,48.4997 Z M54.8364,51.4997 C53.5274,51.4997 52.2964,52.0287 51.3724,52.9887 L51.0714,53.2997 C50.7884,53.5917 50.4004,53.7567 49.9934,53.7567 C49.5854,53.7567 49.1974,53.5907 48.9144,53.2987 L48.6164,52.9897 C47.6904,52.0287 46.4584,51.5007 45.1494,51.5007 C43.8394,51.5007 42.6094,52.0287 41.6844,52.9887 C39.7664,54.9767 39.7664,58.2127 41.6834,60.2007 L49.8904,68.7077 C49.9454,68.7627 50.0354,68.7637 50.0924,68.7117 C51.9574,66.9137 53.7924,64.9667 55.5674,63.0827 C56.4764,62.1167 57.3854,61.1517 58.3044,60.1997 C59.2194,59.2517 59.7434,57.9367 59.7434,56.5957 C59.7434,55.2327 59.2324,53.9517 58.3034,52.9887 C57.3774,52.0287 56.1464,51.4997 54.8364,51.4997 Z M69.3122,18 C73.4992,18 76.9072,21.407 76.9072,25.594 C76.9072,29.781 73.4992,33.188 69.3122,33.188 C65.1252,33.188 61.7182,29.781 61.7182,25.594 C61.7182,21.407 65.1252,18 69.3122,18 M69.3122,36.188 C75.1542,36.188 79.9072,31.436 79.9072,25.594 C79.9072,19.752 75.1542,15 69.3122,15 C63.4702,15 58.7182,19.752 58.7182,25.594 C58.7182,31.436 63.4702,36.188 69.3122,36.188" fill="#000000"/></g><text x="0" y="115" fill="#000000" font-size="5px" font-weight="bold" font-family="'Helvetica Neue', Helvetica, Arial-Unicode, Arial, Sans-serif">Created by Debby Wang</text><text x="0" y="120" fill="#000000" font-size="5px" font-weight="bold" font-family="'Helvetica Neue', Helvetica, Arial-Unicode, Arial, Sans-serif">from the Noun Project</text></svg>