<?xml version="1.0"?>
<svg xmlns="http://www.w3.org/2000/svg" width="502" height="352" viewBox="0 0 502 352" version="1.1" style="background-color:transparent;">
  <path d="M 238 70.944 C 212.507 76.352, 191.386 90.539, 182.523 108.207 C 179.350 114.532, 178.950 116.097, 179.510 120 C 181.826 136.126, 194.579 140.250, 213.724 131.063 C 218.496 128.774, 224.561 125.348, 227.202 123.450 C 229.844 121.553, 232.291 120, 232.642 120 C 233.970 120, 244.902 125.533, 244.950 126.230 C 245.029 127.375, 235.024 132.811, 229.500 134.624 C 226.750 135.526, 223.938 136.710, 223.250 137.255 C 219.749 140.028, 224.160 144.828, 236.389 151.550 C 241.738 154.490, 243 155.649, 243 157.624 C 243 158.966, 243.681 161.694, 244.513 163.686 C 245.345 165.677, 245.848 167.485, 245.630 167.703 C 245.412 167.922, 242.368 167.144, 238.867 165.975 C 227.010 162.017, 218.981 156.127, 213.261 147.190 C 209.759 141.720, 207.706 140.926, 205.622 144.235 C 204.068 146.702, 207.145 152.139, 214.058 159.144 C 224.032 169.251, 241.751 176.209, 258 176.400 C 265.990 176.494, 266.518 176.370, 266.808 174.335 C 267.062 172.557, 265.847 171.503, 260.006 168.434 C 253.637 165.087, 250 161.403, 250 158.300 C 250 157.860, 254.162 157.500, 259.250 157.500 C 267.407 157.500, 269.190 157.161, 274.335 154.635 C 280.084 151.812, 283.988 147.444, 283.996 143.827 C 284.004 140.470, 279.001 136.056, 273.317 134.404 C 262.123 131.150, 250.730 135.725, 245.136 145.722 C 244.373 147.085, 243.781 147.152, 241.358 146.148 C 239.778 145.494, 237.235 144.138, 235.706 143.135 L 232.926 141.311 239.213 138.216 C 242.671 136.513, 247.300 133.609, 249.500 131.762 C 252.817 128.977, 254.013 128.519, 256.500 129.083 C 258.150 129.457, 263.686 129.817, 268.803 129.882 C 285.184 130.090, 300.617 125.110, 308.414 117.100 C 311.802 113.620, 312.391 112.332, 312.789 107.532 C 313.241 102.081, 313.174 101.910, 308.855 97.592 C 302.327 91.064, 293.468 88.577, 279.160 89.256 C 273.251 89.537, 266.626 90.457, 264.294 91.321 L 260.089 92.880 257.957 89.431 C 251.317 78.687, 235.229 78.141, 226.261 88.355 C 220.257 95.194, 219.622 103.757, 224.563 111.258 L 227.039 115.015 220.033 119.547 C 207.991 127.337, 196.888 130.589, 191.684 127.850 C 188.920 126.395, 188.243 125.380, 186.969 120.778 C 186.080 117.570, 186.277 116.387, 188.389 112.219 C 196.277 96.653, 212.595 84.970, 235.001 78.847 C 242.397 76.826, 245.707 76.532, 260.500 76.581 C 274.819 76.629, 278.761 76.985, 285.500 78.842 C 312.534 86.289, 331.061 103.666, 333.914 124.250 C 334.778 130.486, 334.035 141.139, 332.447 145.276 C 331.638 147.385, 328.651 148.454, 328.110 146.829 C 327.311 144.432, 317.551 134.821, 313.514 132.456 C 303.602 126.647, 295.175 128.855, 290.457 138.498 C 285.983 147.642, 288.405 154.080, 297.646 157.609 C 301.091 158.925, 304.008 159.147, 311.745 158.683 C 317.110 158.361, 322.400 157.963, 323.500 157.799 C 325.314 157.528, 325.530 158.152, 325.817 164.500 C 326.324 175.721, 323.052 183.171, 317.035 184.492 C 312.284 185.536, 307.652 182.518, 299.933 173.352 C 296.025 168.711, 291.055 163.741, 288.889 162.308 C 284.440 159.363, 276.994 158.247, 272.750 159.887 C 268.026 161.714, 269.021 165.414, 276.864 175.190 C 284.569 184.793, 288.250 191.634, 290.792 201.072 C 292.152 206.124, 292.967 207.564, 294.599 207.798 C 298.426 208.348, 299.274 205.847, 297.535 199.135 C 294.733 188.322, 290.482 180.473, 281.272 169.107 L 278.523 165.714 281.011 166.488 C 285.215 167.796, 288.570 170.698, 295.340 178.880 C 302.384 187.395, 306.460 190.454, 312.172 191.513 C 319.736 192.915, 326.116 189.434, 330.294 181.624 C 332.175 178.108, 332.518 175.803, 332.619 165.981 L 332.738 154.462 336.218 150.981 C 339.288 147.910, 339.837 146.551, 340.874 139.452 C 345.748 106.101, 321.158 78.367, 279.750 70.512 C 268.821 68.439, 248.833 68.646, 238 70.944 M 237 88.702 C 234.127 89.743, 229.088 95.322, 228.468 98.148 C 227.752 101.404, 229.412 107.267, 231.551 109.042 C 232.730 110.021, 234.065 109.368, 238.721 105.535 C 241.868 102.945, 246.368 99.697, 248.721 98.318 C 253.360 95.599, 253.544 95.271, 251.718 92.954 C 248.378 88.716, 242.024 86.880, 237 88.702 M 268.500 97.523 C 265.750 98.287, 263.275 98.932, 263 98.956 C 262.725 98.980, 262.495 102.037, 262.489 105.750 C 262.482 109.860, 261.790 114.188, 260.720 116.816 C 259.754 119.190, 259.223 121.552, 259.541 122.066 C 260.641 123.847, 278.126 123.115, 285.892 120.963 C 294.628 118.542, 297.790 117.001, 302.487 112.878 C 308.806 107.329, 306.490 101.894, 296.129 97.957 C 289.936 95.604, 276.190 95.388, 268.500 97.523 M 249.939 105.984 C 247.497 107.637, 243.925 110.313, 242 111.931 L 238.500 114.871 244.419 117.586 L 250.338 120.301 252.104 118.120 C 254.389 115.297, 256.687 105.287, 255.355 103.955 C 254.718 103.318, 252.831 104.024, 249.939 105.984 M 299.923 136.983 C 299.056 137.490, 297.508 139.766, 296.483 142.039 C 294.400 146.656, 294.992 148.624, 299.098 150.735 C 301.643 152.044, 315.721 152.296, 319.985 151.109 C 322.453 150.422, 322.437 150.381, 317.485 145.062 C 310.772 137.851, 303.869 134.675, 299.923 136.983 M 260.500 141.457 C 258.300 142.259, 255.198 144.364, 253.608 146.133 L 250.715 149.350 253.108 150.265 C 259.158 152.580, 276 148.349, 276 144.515 C 276 141.089, 266.594 139.233, 260.500 141.457 M 166.581 234.869 C 165.955 235.882, 145 294.753, 145 295.499 C 145 295.774, 147.843 296, 151.317 296 L 157.635 296 159.368 290.500 L 161.102 285 173.500 285 L 185.898 285 187.632 290.500 L 189.365 296 195.683 296 C 199.157 296, 202 295.687, 202 295.304 C 202 294.497, 183.448 242.102, 181.444 237.250 C 180.125 234.055, 179.992 234, 173.610 234 C 170.039 234, 166.876 234.391, 166.581 234.869 M 230 234.877 C 216.344 239.362, 208 250.977, 208 265.500 C 208 278.019, 214.250 288.520, 224.776 293.689 C 232.505 297.484, 243.810 297.652, 251.779 294.089 C 262.050 289.497, 269 278.694, 269 267.322 L 269 262 252.500 262 L 236 262 236 267 L 236 272 246 272 C 252.315 272, 256 272.387, 256 273.050 C 256 273.627, 255.341 275.373, 254.536 276.931 C 249.242 287.168, 234.578 288.813, 225.907 280.142 C 221.128 275.364, 219.378 268.002, 221.104 259.943 C 224.014 246.359, 240.043 240.623, 249.987 249.608 C 253.461 252.745, 254.240 253, 260.371 253 C 264.017 253, 266.998 252.662, 266.996 252.250 C 266.994 251.838, 266.047 249.925, 264.891 248 C 259.355 238.778, 252.241 234.799, 240.500 234.357 C 236.100 234.192, 231.375 234.426, 230 234.877 M 295.703 235.383 C 293.614 236.161, 290.163 237.950, 288.034 239.359 C 272.696 249.509, 270.437 274.006, 283.591 287.541 C 290.160 294.299, 295.628 296.480, 306 296.480 C 316.173 296.480, 321.618 294.382, 328 288 C 334.488 281.512, 336.489 276.213, 336.495 265.500 C 336.499 257.669, 336.138 255.762, 333.710 250.818 C 330.661 244.610, 326.255 240.205, 319.722 236.833 C 314.355 234.064, 301.356 233.279, 295.703 235.383 M 108 265.500 L 108 296 124.500 296 L 141 296 141 291.500 L 141 287 131 287 L 121 287 121 261 L 121 235 114.500 235 L 108 235 108 265.500 M 346 265.456 L 346 296 352 296 L 358 296 358 276.941 C 358 266.459, 358.348 258.097, 358.774 258.360 C 359.200 258.624, 362.912 267.214, 367.024 277.450 L 374.500 296.062 379.477 295.781 L 384.455 295.500 391.977 277 L 399.500 258.500 399.772 277.250 L 400.044 296 406.522 296 L 413 296 413 265.500 L 413 235 405.750 235.025 L 398.500 235.050 389.108 257.550 C 383.943 269.925, 379.538 279.872, 379.321 279.654 C 379.104 279.437, 374.770 269.414, 369.690 257.380 L 360.453 235.500 353.227 235.206 L 346 234.912 346 265.456 M 297.223 247.119 C 290.924 250.236, 287.588 256.409, 287.590 264.939 C 287.592 272.915, 289.881 278.081, 295.343 282.436 C 298.783 285.179, 299.899 285.500, 306 285.500 C 312.108 285.500, 313.206 285.183, 316.587 282.447 C 321.825 278.207, 324.198 273.195, 324.264 266.233 C 324.334 258.758, 322.718 254.084, 318.731 250.239 C 312.822 244.540, 304.788 243.374, 297.223 247.119 M 169.143 261.825 C 166.864 268.355, 165 273.991, 165 274.349 C 165 274.707, 168.825 275, 173.500 275 C 178.175 275, 181.996 274.663, 181.991 274.250 C 181.982 273.390, 174.030 250.697, 173.582 250.248 C 173.419 250.085, 171.421 255.295, 169.143 261.825" stroke="none" fill="#0cbef4" fill-rule="evenodd"/>
  <path d="M 0 176.002 L 0 352.004 251.250 351.752 L 502.500 351.500 502.753 175.750 L 503.006 -0 251.503 -0 L 0 0 0 176.002 M 0.489 176.500 C 0.489 273.300, 0.606 312.752, 0.750 264.171 C 0.893 215.590, 0.893 136.390, 0.750 88.171 C 0.606 39.952, 0.489 79.700, 0.489 176.500 M 238 70.944 C 212.507 76.352, 191.386 90.539, 182.523 108.207 C 179.350 114.532, 178.950 116.097, 179.510 120 C 181.826 136.126, 194.579 140.250, 213.724 131.063 C 218.496 128.774, 224.561 125.348, 227.202 123.450 C 229.844 121.553, 232.291 120, 232.642 120 C 233.970 120, 244.902 125.533, 244.950 126.230 C 245.029 127.375, 235.024 132.811, 229.500 134.624 C 226.750 135.526, 223.938 136.710, 223.250 137.255 C 219.749 140.028, 224.160 144.828, 236.389 151.550 C 241.738 154.490, 243 155.649, 243 157.624 C 243 158.966, 243.681 161.694, 244.513 163.686 C 245.345 165.677, 245.848 167.485, 245.630 167.703 C 245.412 167.922, 242.368 167.144, 238.867 165.975 C 227.010 162.017, 218.981 156.127, 213.261 147.190 C 209.759 141.720, 207.706 140.926, 205.622 144.235 C 204.068 146.702, 207.145 152.139, 214.058 159.144 C 224.032 169.251, 241.751 176.209, 258 176.400 C 265.990 176.494, 266.518 176.370, 266.808 174.335 C 267.062 172.557, 265.847 171.503, 260.006 168.434 C 253.637 165.087, 250 161.403, 250 158.300 C 250 157.860, 254.162 157.500, 259.250 157.500 C 267.407 157.500, 269.190 157.161, 274.335 154.635 C 280.084 151.812, 283.988 147.444, 283.996 143.827 C 284.004 140.470, 279.001 136.056, 273.317 134.404 C 262.123 131.150, 250.730 135.725, 245.136 145.722 C 244.373 147.085, 243.781 147.152, 241.358 146.148 C 239.778 145.494, 237.235 144.138, 235.706 143.135 L 232.926 141.311 239.213 138.216 C 242.671 136.513, 247.300 133.609, 249.500 131.762 C 252.817 128.977, 254.013 128.519, 256.500 129.083 C 258.150 129.457, 263.686 129.817, 268.803 129.882 C 285.184 130.090, 300.617 125.110, 308.414 117.100 C 311.802 113.620, 312.391 112.332, 312.789 107.532 C 313.241 102.081, 313.174 101.910, 308.855 97.592 C 302.327 91.064, 293.468 88.577, 279.160 89.256 C 273.251 89.537, 266.626 90.457, 264.294 91.321 L 260.089 92.880 257.957 89.431 C 251.317 78.687, 235.229 78.141, 226.261 88.355 C 220.257 95.194, 219.622 103.757, 224.563 111.258 L 227.039 115.015 220.033 119.547 C 207.991 127.337, 196.888 130.589, 191.684 127.850 C 188.920 126.395, 188.243 125.380, 186.969 120.778 C 186.080 117.570, 186.277 116.387, 188.389 112.219 C 196.277 96.653, 212.595 84.970, 235.001 78.847 C 242.397 76.826, 245.707 76.532, 260.500 76.581 C 274.819 76.629, 278.761 76.985, 285.500 78.842 C 312.534 86.289, 331.061 103.666, 333.914 124.250 C 334.778 130.486, 334.035 141.139, 332.447 145.276 C 331.638 147.385, 328.651 148.454, 328.110 146.829 C 327.311 144.432, 317.551 134.821, 313.514 132.456 C 303.602 126.647, 295.175 128.855, 290.457 138.498 C 285.983 147.642, 288.405 154.080, 297.646 157.609 C 301.091 158.925, 304.008 159.147, 311.745 158.683 C 317.110 158.361, 322.400 157.963, 323.500 157.799 C 325.314 157.528, 325.530 158.152, 325.817 164.500 C 326.324 175.721, 323.052 183.171, 317.035 184.492 C 312.284 185.536, 307.652 182.518, 299.933 173.352 C 296.025 168.711, 291.055 163.741, 288.889 162.308 C 284.440 159.363, 276.994 158.247, 272.750 159.887 C 268.026 161.714, 269.021 165.414, 276.864 175.190 C 284.569 184.793, 288.250 191.634, 290.792 201.072 C 292.152 206.124, 292.967 207.564, 294.599 207.798 C 298.426 208.348, 299.274 205.847, 297.535 199.135 C 294.733 188.322, 290.482 180.473, 281.272 169.107 L 278.523 165.714 281.011 166.488 C 285.215 167.796, 288.570 170.698, 295.340 178.880 C 302.384 187.395, 306.460 190.454, 312.172 191.513 C 319.736 192.915, 326.116 189.434, 330.294 181.624 C 332.175 178.108, 332.518 175.803, 332.619 165.981 L 332.738 154.462 336.218 150.981 C 339.288 147.910, 339.837 146.551, 340.874 139.452 C 345.748 106.101, 321.158 78.367, 279.750 70.512 C 268.821 68.439, 248.833 68.646, 238 70.944 M 237 88.702 C 234.127 89.743, 229.088 95.322, 228.468 98.148 C 227.752 101.404, 229.412 107.267, 231.551 109.042 C 232.730 110.021, 234.065 109.368, 238.721 105.535 C 241.868 102.945, 246.368 99.697, 248.721 98.318 C 253.360 95.599, 253.544 95.271, 251.718 92.954 C 248.378 88.716, 242.024 86.880, 237 88.702 M 268.500 97.523 C 265.750 98.287, 263.275 98.932, 263 98.956 C 262.725 98.980, 262.495 102.037, 262.489 105.750 C 262.482 109.860, 261.790 114.188, 260.720 116.816 C 259.754 119.190, 259.223 121.552, 259.541 122.066 C 260.641 123.847, 278.126 123.115, 285.892 120.963 C 294.628 118.542, 297.790 117.001, 302.487 112.878 C 308.806 107.329, 306.490 101.894, 296.129 97.957 C 289.936 95.604, 276.190 95.388, 268.500 97.523 M 249.939 105.984 C 247.497 107.637, 243.925 110.313, 242 111.931 L 238.500 114.871 244.419 117.586 L 250.338 120.301 252.104 118.120 C 254.389 115.297, 256.687 105.287, 255.355 103.955 C 254.718 103.318, 252.831 104.024, 249.939 105.984 M 299.923 136.983 C 299.056 137.490, 297.508 139.766, 296.483 142.039 C 294.400 146.656, 294.992 148.624, 299.098 150.735 C 301.643 152.044, 315.721 152.296, 319.985 151.109 C 322.453 150.422, 322.437 150.381, 317.485 145.062 C 310.772 137.851, 303.869 134.675, 299.923 136.983 M 260.500 141.457 C 258.300 142.259, 255.198 144.364, 253.608 146.133 L 250.715 149.350 253.108 150.265 C 259.158 152.580, 276 148.349, 276 144.515 C 276 141.089, 266.594 139.233, 260.500 141.457 M 166.581 234.869 C 165.955 235.882, 145 294.753, 145 295.499 C 145 295.774, 147.843 296, 151.317 296 L 157.635 296 159.368 290.500 L 161.102 285 173.500 285 L 185.898 285 187.632 290.500 L 189.365 296 195.683 296 C 199.157 296, 202 295.687, 202 295.304 C 202 294.497, 183.448 242.102, 181.444 237.250 C 180.125 234.055, 179.992 234, 173.610 234 C 170.039 234, 166.876 234.391, 166.581 234.869 M 230 234.877 C 216.344 239.362, 208 250.977, 208 265.500 C 208 278.019, 214.250 288.520, 224.776 293.689 C 232.505 297.484, 243.810 297.652, 251.779 294.089 C 262.050 289.497, 269 278.694, 269 267.322 L 269 262 252.500 262 L 236 262 236 267 L 236 272 246 272 C 252.315 272, 256 272.387, 256 273.050 C 256 273.627, 255.341 275.373, 254.536 276.931 C 249.242 287.168, 234.578 288.813, 225.907 280.142 C 221.128 275.364, 219.378 268.002, 221.104 259.943 C 224.014 246.359, 240.043 240.623, 249.987 249.608 C 253.461 252.745, 254.240 253, 260.371 253 C 264.017 253, 266.998 252.662, 266.996 252.250 C 266.994 251.838, 266.047 249.925, 264.891 248 C 259.355 238.778, 252.241 234.799, 240.500 234.357 C 236.100 234.192, 231.375 234.426, 230 234.877 M 295.703 235.383 C 293.614 236.161, 290.163 237.950, 288.034 239.359 C 272.696 249.509, 270.437 274.006, 283.591 287.541 C 290.160 294.299, 295.628 296.480, 306 296.480 C 316.173 296.480, 321.618 294.382, 328 288 C 334.488 281.512, 336.489 276.213, 336.495 265.500 C 336.499 257.669, 336.138 255.762, 333.710 250.818 C 330.661 244.610, 326.255 240.205, 319.722 236.833 C 314.355 234.064, 301.356 233.279, 295.703 235.383 M 108 265.500 L 108 296 124.500 296 L 141 296 141 291.500 L 141 287 131 287 L 121 287 121 261 L 121 235 114.500 235 L 108 235 108 265.500 M 346 265.456 L 346 296 352 296 L 358 296 358 276.941 C 358 266.459, 358.348 258.097, 358.774 258.360 C 359.200 258.624, 362.912 267.214, 367.024 277.450 L 374.500 296.062 379.477 295.781 L 384.455 295.500 391.977 277 L 399.500 258.500 399.772 277.250 L 400.044 296 406.522 296 L 413 296 413 265.500 L 413 235 405.750 235.025 L 398.500 235.050 389.108 257.550 C 383.943 269.925, 379.538 279.872, 379.321 279.654 C 379.104 279.437, 374.770 269.414, 369.690 257.380 L 360.453 235.500 353.227 235.206 L 346 234.912 346 265.456 M 297.223 247.119 C 290.924 250.236, 287.588 256.409, 287.590 264.939 C 287.592 272.915, 289.881 278.081, 295.343 282.436 C 298.783 285.179, 299.899 285.500, 306 285.500 C 312.108 285.500, 313.206 285.183, 316.587 282.447 C 321.825 278.207, 324.198 273.195, 324.264 266.233 C 324.334 258.758, 322.718 254.084, 318.731 250.239 C 312.822 244.540, 304.788 243.374, 297.223 247.119 M 169.143 261.825 C 166.864 268.355, 165 273.991, 165 274.349 C 165 274.707, 168.825 275, 173.500 275 C 178.175 275, 181.996 274.663, 181.991 274.250 C 181.982 273.390, 174.030 250.697, 173.582 250.248 C 173.419 250.085, 171.421 255.295, 169.143 261.825" stroke="none" fill="#fbfbfc" fill-rule="evenodd"/>
</svg>
