<svg xmlns="http://www.w3.org/2000/svg" width="502" height="352" viewBox="0 0 502 352" version="1.1"><path d="M 256.280 68.736 C 258.909 68.943, 262.959 68.940, 265.280 68.731 C 267.601 68.521, 265.450 68.352, 260.500 68.355 C 255.550 68.358, 253.651 68.530, 256.280 68.736 M 244.250 69.689 C 245.213 69.941, 246.787 69.941, 247.750 69.689 C 248.713 69.438, 247.925 69.232, 246 69.232 C 244.075 69.232, 243.287 69.438, 244.250 69.689 M 235.500 71 C 232.952 72.095, 235.581 72.095, 239 71 C 241.010 70.356, 241.108 70.194, 239.500 70.170 C 238.400 70.154, 236.600 70.527, 235.500 71 M 285 72.063 C 289.125 73.109, 292.936 73.828, 293.470 73.659 C 294.715 73.267, 281.675 69.974, 279.294 70.080 C 278.308 70.124, 280.875 71.016, 285 72.063 M 225.188 73.683 C 218.714 75.973, 220.780 76.303, 227.588 74.068 C 230.840 73, 232.600 72.133, 231.500 72.142 C 230.400 72.151, 227.559 72.844, 225.188 73.683 M 256.768 75.725 C 258.565 75.947, 261.265 75.943, 262.768 75.715 C 264.271 75.486, 262.800 75.304, 259.500 75.310 C 256.200 75.315, 254.971 75.502, 256.768 75.725 M 298 75.451 C 298 75.673, 300.438 76.970, 303.418 78.334 C 316.840 84.479, 328.290 94.601, 334.944 106.204 C 336.615 109.117, 337.985 111.105, 337.991 110.622 C 338.010 108.847, 331.923 99.194, 327.912 94.637 C 321.866 87.768, 309.688 79.493, 300.466 75.987 C 299.110 75.471, 298 75.230, 298 75.451 M 213.221 78.972 C 204.353 83.167, 194.678 90.503, 189.443 97 C 187.841 98.989, 189.188 98.030, 192.562 94.779 C 200.156 87.463, 205.779 83.466, 213.680 79.769 C 217.156 78.142, 220 76.629, 220 76.406 C 220 75.776, 219.885 75.819, 213.221 78.972 M 246.264 76.718 C 247.784 76.947, 250.034 76.941, 251.264 76.704 C 252.494 76.467, 251.250 76.279, 248.500 76.286 C 245.750 76.294, 244.744 76.488, 246.264 76.718 M 269.750 76.706 C 270.988 76.944, 273.012 76.944, 274.250 76.706 C 275.488 76.467, 274.475 76.272, 272 76.272 C 269.525 76.272, 268.512 76.467, 269.750 76.706 M 277.083 77.367 C 277.313 77.569, 279.300 78.009, 281.500 78.344 C 284.288 78.768, 284.894 78.678, 283.500 78.047 C 281.580 77.177, 276.224 76.610, 277.083 77.367 M 290.920 81.070 C 293.901 82.128, 296.513 82.821, 296.724 82.609 C 297.191 82.143, 288.082 78.970, 286.572 79.073 C 285.982 79.113, 287.939 80.012, 290.920 81.070 M 222.500 82.356 C 215.802 85.278, 211.254 87.780, 210.540 88.936 C 210.217 89.458, 212.081 88.696, 214.682 87.243 C 217.282 85.789, 222.131 83.588, 225.455 82.352 C 228.780 81.116, 230.600 80.120, 229.500 80.139 C 228.400 80.159, 225.250 81.156, 222.500 82.356 M 240.762 80.707 C 242.006 80.946, 243.806 80.937, 244.762 80.687 C 245.718 80.437, 244.700 80.241, 242.500 80.252 C 240.300 80.263, 239.518 80.468, 240.762 80.707 M 232.500 82.573 C 230.850 83.431, 228.444 85.115, 227.153 86.316 C 224.625 88.668, 220.994 95.107, 221.010 97.210 C 221.015 97.920, 222.088 96.205, 223.394 93.401 C 225.669 88.514, 229.495 84.854, 234.966 82.331 C 236.360 81.688, 237.050 81.129, 236.500 81.087 C 235.950 81.046, 234.150 81.714, 232.500 82.573 M 250.435 82.895 C 250.807 83.497, 252.041 84.487, 253.176 85.094 C 254.656 85.886, 255.050 85.889, 254.565 85.105 C 254.193 84.503, 252.959 83.513, 251.824 82.906 C 250.344 82.114, 249.950 82.111, 250.435 82.895 M 304 86.621 C 311.154 90.581, 317.989 95.745, 322.299 100.447 C 324.002 102.305, 324.721 102.717, 324.135 101.500 C 322.345 97.782, 312.102 89.605, 304.249 85.626 C 296.634 81.768, 296.464 82.449, 304 86.621 M 244.500 88.574 C 246.700 89.363, 249.512 91.156, 250.750 92.560 C 251.988 93.963, 253 94.715, 253 94.230 C 253 91.895, 245.058 86.870, 241.685 87.070 C 241.033 87.109, 242.300 87.786, 244.500 88.574 M 231.882 91.882 C 228.483 95.282, 228.017 96.308, 228.134 100.132 L 228.267 104.500 228.917 99.863 C 229.700 94.278, 231.229 92.261, 236.500 89.863 C 239.726 88.396, 240.042 88.040, 238.132 88.022 C 236.696 88.009, 234.238 89.527, 231.882 91.882 M 278.728 88.722 C 280.503 88.943, 283.653 88.946, 285.728 88.730 C 287.802 88.513, 286.350 88.333, 282.500 88.328 C 278.650 88.324, 276.952 88.501, 278.728 88.722 M 265.070 90.515 C 262.633 91.274, 260.158 91.628, 259.570 91.301 C 258.850 90.901, 258.827 91.058, 259.500 91.783 C 260.380 92.730, 268.061 91.425, 272.500 89.575 C 275.021 88.524, 269.021 89.283, 265.070 90.515 M 290 89.383 C 290 90.271, 294.046 90.735, 294.558 89.906 C 294.866 89.408, 293.966 89, 292.559 89 C 291.152 89, 290 89.173, 290 89.383 M 300.500 92.408 C 307.472 95.737, 312.194 100.937, 313.055 106.234 L 313.750 110.500 313.875 106.900 C 314.102 100.369, 306.705 92.791, 298 90.638 C 296.625 90.298, 297.750 91.094, 300.500 92.408 M 198.409 97.750 C 193.903 102.332, 189 108.915, 189 110.382 C 189 110.977, 190.185 109.672, 191.633 107.482 C 193.081 105.292, 196.326 101.362, 198.845 98.750 C 201.364 96.138, 203.126 94, 202.761 94 C 202.395 94, 200.437 95.688, 198.409 97.750 M 274.500 95.894 C 272.850 96.256, 276.443 96.559, 282.486 96.568 C 288.528 96.576, 292.353 96.272, 290.986 95.891 C 287.866 95.023, 278.467 95.025, 274.500 95.894 M 264.500 98 L 262.500 98.859 264.500 98.830 C 265.600 98.814, 267.625 98.440, 269 98 L 271.500 97.199 269 97.170 C 267.625 97.154, 265.600 97.527, 264.500 98 M 239.321 104.500 C 236.492 106.975, 233.713 109, 233.145 109 C 232.578 109, 231.413 108, 230.557 106.777 C 229.701 105.555, 229.015 104.993, 229.033 105.527 C 229.052 106.062, 229.949 107.559, 231.028 108.854 L 232.989 111.208 238.994 106.005 C 244.322 101.390, 245.650 100, 244.733 100 C 244.586 100, 242.151 102.025, 239.321 104.500 M 185.278 102.250 C 183.324 104.777, 182.657 106.330, 183.840 105.599 C 185.024 104.867, 187.393 101, 186.658 101 C 186.431 101, 185.810 101.563, 185.278 102.250 M 221.005 104.609 C 221.008 105.649, 222.100 108.300, 223.432 110.500 C 225.713 114.266, 225.757 114.611, 224.177 116.396 C 222.571 118.211, 222.595 118.241, 224.750 117.110 C 225.988 116.461, 226.994 115.608, 226.987 115.215 C 226.980 114.822, 225.630 111.849, 223.987 108.609 C 222.344 105.369, 221.002 103.569, 221.005 104.609 M 250.405 105.155 L 248.500 107.310 251.250 105.540 C 254.086 103.715, 254.622 103, 253.155 103 C 252.690 103, 251.453 103.970, 250.405 105.155 M 255.175 106.185 C 255.079 108.212, 254.537 111.087, 253.972 112.574 C 253.407 114.061, 253.169 115.502, 253.444 115.777 C 254.497 116.830, 256.079 110.430, 255.723 106.558 L 255.349 102.500 255.175 106.185 M 306.079 107.202 C 306.036 108.138, 304.313 110.593, 302.250 112.657 C 299.790 115.119, 299.349 115.876, 300.967 114.856 C 304.320 112.741, 307.354 108.505, 306.697 106.854 C 306.317 105.900, 306.135 106.003, 306.079 107.202 M 181.162 109.543 C 179.487 113.220, 179.807 114.005, 181.618 110.662 C 182.464 109.100, 182.969 107.636, 182.741 107.407 C 182.512 107.179, 181.802 108.140, 181.162 109.543 M 331.132 115 C 333.025 119.575, 333.416 122.393, 333.454 131.755 C 333.488 139.961, 333.733 142.128, 334.360 139.755 C 336.260 132.561, 333.425 114.459, 329.778 110.500 C 329.271 109.950, 329.881 111.975, 331.132 115 M 310.642 113.424 C 309.746 114.791, 307.997 116.887, 306.756 118.081 C 305.515 119.275, 305.149 120.054, 305.941 119.812 C 307.729 119.267, 313.541 112.207, 312.807 111.473 C 312.512 111.179, 311.538 112.056, 310.642 113.424 M 260.100 116.600 C 259.394 118.552, 259.038 120.371, 259.309 120.642 C 259.579 120.913, 260.340 119.499, 261 117.500 C 262.563 112.765, 261.773 111.975, 260.100 116.600 M 179.153 118 C 179.032 122.980, 181.597 129.504, 184.793 132.345 C 188.445 135.593, 200.183 138.723, 198.500 136 C 198.160 135.450, 196.221 134.998, 194.191 134.996 C 186.426 134.988, 181.297 129.218, 179.974 119 L 179.262 113.500 179.153 118 M 240.471 115.952 C 241.392 117.444, 249.823 120.282, 251.462 119.653 C 252.308 119.328, 252.964 118.486, 252.921 117.781 C 252.859 116.778, 252.733 116.771, 252.338 117.750 C 251.632 119.498, 249.207 119.277, 244.210 117.009 C 241.851 115.938, 240.168 115.463, 240.471 115.952 M 293 118.174 C 290.525 119.293, 285.350 120.795, 281.500 121.514 C 275.744 122.587, 275.211 122.832, 278.500 122.889 C 282.544 122.959, 295.440 118.960, 297.359 117.041 C 298.735 115.665, 298.309 115.776, 293 118.174 M 216 121.386 C 212.975 123.149, 208.700 125.375, 206.500 126.332 C 203.278 127.734, 203.078 127.953, 205.471 127.462 C 208.639 126.811, 220.600 120.456, 221.550 118.919 C 222.300 117.706, 222.347 117.685, 216 121.386 M 226.500 123.151 C 224.300 124.853, 218.450 128.241, 213.500 130.679 C 208.550 133.117, 205.625 134.806, 207 134.433 C 212.387 132.970, 232 121.963, 232 120.403 C 232 119.392, 230.187 120.298, 226.500 123.151 M 235.453 121.446 C 236.527 122.310, 238.890 123.554, 240.703 124.210 C 242.516 124.865, 244 125.752, 244 126.181 C 244 126.609, 241.637 128.314, 238.750 129.970 C 233.196 133.155, 232.888 134.120, 238.300 131.379 C 242.017 129.497, 245 127.044, 245 125.870 C 245 125.419, 242.863 124.031, 240.250 122.785 C 234.002 119.805, 233.102 119.554, 235.453 121.446 M 187.039 122.677 C 186.996 125.079, 191.345 129.045, 193.885 128.921 C 194.773 128.878, 194.219 128.376, 192.653 127.805 C 190.976 127.195, 189.246 125.481, 188.442 123.634 C 187.318 121.050, 187.071 120.882, 187.039 122.677 M 301.450 121.816 C 300.928 122.265, 298.475 123.473, 296 124.500 C 289.474 127.209, 288.515 128.529, 294.888 126.032 C 300.385 123.878, 305.266 121, 303.423 121 C 302.860 121, 301.972 121.367, 301.450 121.816 M 341.199 130.307 C 340.903 141.913, 339.416 146.793, 334.665 151.746 C 331.489 155.056, 330.857 156.257, 331.796 157.196 C 332.735 158.135, 333 157.986, 333 156.521 C 333 155.488, 334.522 153.248, 336.383 151.543 C 340.522 147.752, 342.257 140.737, 341.745 129.869 L 341.397 122.500 341.199 130.307 M 247.500 132.639 C 242.212 137.547, 242.840 137.416, 249.638 132.190 C 253.622 129.128, 253.972 129.046, 259.025 130.005 C 264.712 131.083, 277.709 131.375, 276.736 130.403 C 276.407 130.074, 272.395 129.682, 267.819 129.532 C 263.244 129.382, 257.925 128.976, 256 128.629 C 252.838 128.059, 252.017 128.446, 247.500 132.639 M 281 129 C 277.608 129.714, 277.593 129.738, 280.500 129.769 C 282.150 129.786, 284.625 129.440, 286 129 C 289.279 127.950, 285.989 127.950, 281 129 M 307 130.274 C 314.005 132.415, 322.558 139.079, 326.691 145.616 C 327.346 146.652, 327.909 146.974, 327.941 146.331 C 327.974 145.687, 325.735 142.683, 322.966 139.653 C 317.884 134.093, 309.338 128.914, 305.554 129.102 C 304.219 129.168, 304.725 129.579, 307 130.274 M 227.662 134.860 C 225 135.797, 222.342 137.425, 221.753 138.477 C 220.844 140.101, 221.364 141.006, 225.202 144.481 C 227.688 146.732, 232.455 150.030, 235.795 151.810 C 239.897 153.997, 242.007 155.769, 242.297 157.273 L 242.728 159.500 242.864 157.203 C 242.959 155.595, 242.075 154.397, 239.913 153.203 C 233.617 149.729, 225.442 144.182, 223.612 142.142 C 221.245 139.504, 222.520 137.626, 227.830 135.930 C 229.848 135.286, 231.928 134.363, 232.450 133.879 C 233.648 132.771, 233.511 132.799, 227.662 134.860 M 255.331 135.522 C 252.547 136.909, 249.422 139.032, 248.385 140.238 L 246.500 142.432 249 140.709 C 250.375 139.761, 252.557 138.233, 253.849 137.313 C 255.140 136.393, 258.290 135.077, 260.849 134.388 C 264.034 133.530, 264.695 133.114, 262.946 133.067 C 261.542 133.030, 258.115 134.135, 255.331 135.522 M 270 134 C 273.419 135.095, 276.048 135.095, 273.500 134 C 272.400 133.527, 270.600 133.154, 269.500 133.170 C 267.892 133.194, 267.990 133.356, 270 134 M 290.020 137.960 C 288.909 140.138, 288.039 142.726, 288.086 143.710 C 288.144 144.915, 288.421 144.680, 288.934 142.994 C 289.354 141.615, 290.452 139.027, 291.374 137.244 C 292.297 135.460, 292.824 134, 292.546 134 C 292.268 134, 291.132 135.782, 290.020 137.960 M 299.629 136.791 C 299.360 137.226, 300.684 137.402, 302.570 137.182 C 304.457 136.961, 306 136.605, 306 136.391 C 306 135.638, 300.113 136.008, 299.629 136.791 M 237.134 138.632 C 235.282 139.440, 234.002 140.336, 234.289 140.623 C 234.576 140.910, 236.541 140.232, 238.656 139.116 C 243.088 136.778, 242.102 136.464, 237.134 138.632 M 281.391 139.215 C 283.908 143.463, 283.408 146.807, 279.726 150.350 C 277.925 152.083, 275.563 154.069, 274.476 154.764 C 273.389 155.460, 273.909 155.363, 275.631 154.550 C 279.952 152.510, 284 147.424, 284 144.034 C 284 142.487, 283.051 140.159, 281.891 138.861 L 279.783 136.500 281.391 139.215 M 311.331 140.096 C 316.284 143.377, 321.199 148.869, 320.375 150.203 C 320.104 150.641, 318.559 151, 316.941 151 C 315.323 151, 314 151.480, 314 152.067 C 314 152.699, 314.918 152.871, 316.250 152.488 C 317.488 152.132, 319.288 151.622, 320.250 151.353 C 321.212 151.085, 322 150.480, 322 150.009 C 322 147.560, 310.375 137, 307.679 137 C 307.117 137, 308.760 138.393, 311.331 140.096 M 296.028 141.426 C 294.814 144.620, 294.738 147.040, 295.800 148.711 C 296.855 150.370, 303.428 153.020, 306.218 152.911 C 307.528 152.859, 306.463 152.261, 303.717 151.506 C 296.189 149.435, 294.408 146.844, 297.081 141.849 C 297.676 140.738, 297.913 139.580, 297.609 139.276 C 297.305 138.971, 296.593 139.939, 296.028 141.426 M 263.750 140.706 C 264.988 140.944, 267.012 140.944, 268.250 140.706 C 269.488 140.467, 268.475 140.272, 266 140.272 C 263.525 140.272, 262.512 140.467, 263.750 140.706 M 256.314 142.950 C 254.561 144.019, 252.649 145.787, 252.064 146.881 C 250.318 150.144, 250.853 150.457, 253.161 147.522 C 254.350 146.011, 256.713 143.927, 258.411 142.891 C 260.110 141.855, 261.050 141.007, 260.500 141.007 C 259.950 141.007, 258.066 141.882, 256.314 142.950 M 205.667 142.667 C 204.204 144.129, 205.119 144.943, 206.944 143.803 C 208.558 142.795, 209.262 142.921, 211.090 144.544 L 213.291 146.500 212.110 144.250 C 210.982 142.100, 207.170 141.163, 205.667 142.667 M 234 142.385 C 234 143.114, 238.505 145.713, 241 146.423 C 242.473 146.842, 241.712 146.080, 239.148 144.567 C 234.796 142, 234 141.663, 234 142.385 M 205.009 146.831 C 204.993 149.216, 212.131 158.976, 216.366 162.356 C 224.652 168.972, 236.832 174.335, 246.194 175.490 C 249 175.836, 247.977 175.372, 243.255 174.157 C 233.371 171.613, 220.407 165.013, 215.148 159.847 C 212.754 157.495, 209.496 153.306, 207.907 150.536 C 206.319 147.766, 205.015 146.099, 205.009 146.831 M 288.150 148.115 C 287.884 152.763, 295.174 159.086, 300.651 158.956 C 301.668 158.932, 300.762 158.293, 298.637 157.535 C 293.751 155.793, 289.226 151.502, 288.703 148.114 L 288.300 145.500 288.150 148.115 M 215.654 151.300 C 216.866 153.522, 227.111 162.020, 228.493 161.948 C 229.047 161.919, 228.375 161.133, 227 160.201 C 225.625 159.268, 222.289 156.480, 219.586 154.003 C 216.884 151.526, 215.114 150.310, 215.654 151.300 M 256.250 150.728 C 258.313 150.944, 261.688 150.944, 263.750 150.728 C 265.813 150.513, 264.125 150.336, 260 150.336 C 255.875 150.336, 254.188 150.513, 256.250 150.728 M 265.500 157 L 261.500 157.716 265 157.788 C 266.925 157.827, 269.400 157.473, 270.500 157 C 272.856 155.987, 271.155 155.987, 265.500 157 M 250 158.865 C 250 159.891, 250.940 161.925, 252.088 163.385 C 254.173 166.035, 259.793 169.540, 260.625 168.708 C 260.867 168.467, 259.684 167.698, 257.998 166.999 C 254.750 165.654, 251 161.600, 251 159.435 C 251 158.722, 252.012 157.944, 253.250 157.706 C 255.179 157.334, 255.108 157.253, 252.750 157.136 C 250.684 157.034, 250 157.464, 250 158.865 M 323.217 157.683 C 325.395 158.255, 326.417 163.480, 325.688 170.305 C 325.321 173.734, 325.416 174.650, 325.966 173 C 328.144 166.472, 326.523 156.904, 323.275 157.116 C 321.648 157.222, 321.643 157.270, 323.217 157.683 M 270.536 160.960 C 268.066 163.690, 269.120 166.942, 274.404 172.891 C 279.984 179.175, 284.580 185.859, 287.029 191.254 C 288.089 193.589, 288.966 194.815, 288.978 193.977 C 289.012 191.598, 282.346 180.932, 275.878 173.016 C 272.645 169.059, 270 164.976, 270 163.943 C 270 162.909, 271.238 161.393, 272.750 160.572 C 274.438 159.656, 274.884 159.065, 273.905 159.040 C 273.028 159.018, 271.512 159.882, 270.536 160.960 M 283.209 159.988 C 287.052 161.147, 291.813 164.619, 296.830 169.923 L 301.159 174.500 297.330 169.578 C 293.125 164.173, 285.771 158.951, 282.554 159.086 C 280.931 159.154, 281.069 159.343, 283.209 159.988 M 305.768 159.725 C 307.565 159.947, 310.265 159.943, 311.768 159.715 C 313.271 159.486, 311.800 159.304, 308.500 159.310 C 305.200 159.315, 303.971 159.502, 305.768 159.725 M 333.320 166 C 333.320 169.575, 333.502 171.037, 333.723 169.250 C 333.945 167.463, 333.945 164.537, 333.723 162.750 C 333.502 160.963, 333.320 162.425, 333.320 166 M 235.696 165.098 C 241.170 167.616, 246 168.581, 246 167.156 C 246 166.555, 245.390 166.297, 244.645 166.583 C 243.900 166.868, 240.863 166.180, 237.895 165.052 C 231.205 162.509, 230.116 162.532, 235.696 165.098 M 287.526 171.250 C 289.951 173.588, 293.791 177.525, 296.060 180 L 300.186 184.500 296.843 180.016 C 292.922 174.757, 285.267 167, 283.999 167 C 283.514 167, 285.101 168.912, 287.526 171.250 M 264.499 171.417 C 267.135 173.519, 267.291 173.945, 265.996 175.505 C 264.789 176.959, 263.396 177.160, 257.526 176.726 C 253.292 176.413, 251.692 176.516, 253.500 176.985 C 255.150 177.413, 258.622 177.817, 261.215 177.882 C 264.979 177.976, 266.145 177.597, 267 176 C 268.372 173.436, 266.876 170.462, 263.810 169.661 C 261.840 169.145, 261.926 169.366, 264.499 171.417 M 281.038 169.097 C 281.017 169.425, 281.953 170.775, 283.118 172.097 C 284.283 173.419, 286.314 176.188, 287.631 178.250 C 290.420 182.619, 291.917 183.361, 289.423 179.139 C 287.482 175.854, 281.094 168.203, 281.038 169.097 M 331.216 177.165 C 329.864 182.410, 326.156 187.351, 321.931 189.536 C 316.472 192.358, 308.093 190.910, 302.744 186.219 C 301.778 185.372, 300.757 184.909, 300.476 185.191 C 300.194 185.473, 301.846 187.007, 304.146 188.601 C 307.727 191.083, 309.277 191.500, 314.915 191.500 C 320.272 191.500, 322.130 191.051, 324.878 189.091 C 328.479 186.522, 333.410 177.265, 332.783 174.250 C 332.582 173.287, 331.878 174.599, 331.216 177.165 M 302.500 176.976 C 303.600 178.330, 304.972 179.956, 305.549 180.589 C 307.491 182.721, 312.879 185.001, 315.700 184.884 C 317.669 184.802, 317.906 184.642, 316.500 184.345 C 315.400 184.112, 313.461 183.699, 312.191 183.427 C 310.921 183.155, 307.771 181.038, 305.191 178.723 C 302.611 176.408, 301.400 175.622, 302.500 176.976 M 324 176.757 C 324 177.356, 322.784 179.292, 321.298 181.058 C 319.055 183.724, 318.957 184.044, 320.726 182.939 C 322.960 181.544, 325.460 177.127, 324.537 176.204 C 324.242 175.909, 324 176.157, 324 176.757 M 291 183.287 C 291 184.019, 294.137 190, 294.521 190 C 295.210 190, 292.816 184.004, 291.902 183.439 C 291.406 183.133, 291 183.064, 291 183.287 M 295.096 191 C 295.060 191.275, 295.668 193.525, 296.448 196 C 297.228 198.475, 297.876 199.600, 297.888 198.500 C 297.907 196.758, 295.271 189.676, 295.096 191 M 289.601 198.666 C 290.521 202.498, 291 202.860, 291 199.726 C 291 198.291, 290.532 196.829, 289.960 196.475 C 289.278 196.054, 289.154 196.808, 289.601 198.666 M 297.932 203.491 C 297.418 207.049, 294.293 208.121, 292.316 205.418 C 291.592 204.428, 291 204.064, 291 204.609 C 291 206.338, 293.318 208, 295.731 208 C 298.344 208, 299.352 206.278, 298.761 202.823 C 298.413 200.784, 298.312 200.866, 297.932 203.491 M 236.566 233.894 C 236.262 234.385, 237.135 234.723, 238.506 234.644 C 239.877 234.565, 240.999 234.162, 240.999 233.750 C 241 232.691, 237.233 232.814, 236.566 233.894 M 299.326 234.044 C 292.286 235.437, 283.946 240.794, 280.064 246.419 C 279.274 247.563, 280.890 246.411, 283.656 243.857 C 286.422 241.303, 290.003 238.533, 291.613 237.700 C 295.451 235.715, 305.120 233.957, 308.023 234.716 C 309.611 235.131, 310.093 234.960, 309.597 234.158 C 308.794 232.858, 305.508 232.822, 299.326 234.044 M 108.229 255.750 L 108.458 277.500 108.749 256.250 L 109.040 235 114.579 235 C 117.625 235, 119.923 235.338, 119.684 235.750 C 119.446 236.162, 119.612 237.400, 120.055 238.500 C 120.714 240.138, 120.872 239.913, 120.930 237.250 L 121 234 114.500 234 L 108 234 108.229 255.750 M 165.514 235.750 C 162.525 243.219, 157.115 259.449, 157.489 259.823 C 157.744 260.078, 158.158 259.659, 158.409 258.893 C 161.646 249.013, 166.243 236.357, 166.796 235.805 C 167.183 235.418, 170.650 234.942, 174.500 234.747 L 181.500 234.392 173.857 234.196 C 167.398 234.030, 166.105 234.271, 165.514 235.750 M 226.028 236.072 C 219.217 239.162, 215.265 242.609, 211.994 248.313 C 210.357 251.166, 209.035 253.950, 209.055 254.500 C 209.074 255.050, 210.083 253.623, 211.295 251.330 C 215.825 242.762, 222.943 237.258, 232.500 234.934 C 235.231 234.270, 235.276 234.198, 233 234.124 C 231.625 234.080, 228.488 234.957, 226.028 236.072 M 243.250 234.689 C 244.213 234.941, 245.787 234.941, 246.750 234.689 C 247.713 234.438, 246.925 234.232, 245 234.232 C 243.075 234.232, 242.287 234.438, 243.250 234.689 M 317.399 236.473 C 320.643 237.806, 323.771 239.371, 324.349 239.949 C 324.927 240.527, 325.864 241, 326.432 241 C 328.107 241, 320.798 236.427, 317.101 235.163 C 311.109 233.113, 311.303 233.966, 317.399 236.473 M 346 265.500 L 346 297 352.500 297 L 359 297 358.786 278.750 L 358.572 260.500 358.036 278 L 357.500 295.500 352.500 295.500 L 347.500 295.500 347.235 265.250 L 346.971 235 353.304 235 C 359.435 235, 359.691 235.103, 361.328 238.250 C 362.645 240.780, 362.880 240.946, 362.388 239 C 361.276 234.607, 360.122 234, 352.878 234 L 346 234 346 265.500 M 397.998 234.750 C 397.997 235.162, 400.922 235.349, 404.499 235.165 C 410.529 234.854, 411.069 234.999, 411.937 237.165 C 412.861 239.470, 412.874 239.464, 412.937 236.750 L 413 234 405.500 234 C 401.375 234, 397.999 234.338, 397.998 234.750 M 394.611 243.111 C 393.141 246.500, 392.112 249.445, 392.324 249.657 C 392.535 249.868, 393.940 247.298, 395.444 243.944 C 396.949 240.591, 397.979 237.645, 397.732 237.399 C 397.485 237.152, 396.081 239.722, 394.611 243.111 M 259.633 242.123 C 267.669 250.633, 267.838 253, 260.409 253 C 255.469 253, 254.344 252.594, 250.746 249.515 C 246.254 245.670, 241.988 244.470, 235.771 245.304 C 231.436 245.885, 223.958 250.471, 223.221 253 C 222.981 253.825, 224.022 253.213, 225.535 251.639 C 232.688 244.201, 246.607 244.173, 251.464 251.586 C 252.886 253.756, 253.751 254, 260.023 254 C 266.115 254, 267 253.768, 267 252.171 C 267 249.560, 261.429 241.500, 258.218 239.467 C 256.136 238.148, 256.468 238.770, 259.633 242.123 M 330.120 246 C 333.271 249.920, 334.829 251.229, 333.395 248.750 C 331.292 245.114, 328.750 242, 327.885 242 C 327.346 242, 328.352 243.800, 330.120 246 M 310.500 246 C 313.252 247.183, 314.231 247.183, 313.500 246 C 313.160 245.450, 311.896 245.032, 310.691 245.070 C 308.579 245.138, 308.572 245.171, 310.500 246 M 319.189 251 C 324.638 258.524, 325.470 267.300, 321.536 275.750 C 318.435 282.412, 319.143 282.624, 322.483 276.033 C 326.700 267.713, 325.167 255.216, 319.276 249.876 L 316.654 247.500 319.189 251 M 367.231 252 C 369.751 258.878, 371.293 262.767, 372.098 264.272 C 372.619 265.247, 373.964 268.501, 375.087 271.503 C 376.210 274.506, 377.549 277.221, 378.062 277.538 C 379.129 278.198, 378.995 277.835, 372.529 262.530 C 369.980 256.497, 367.621 251.322, 367.288 251.030 C 366.954 250.739, 366.929 251.175, 367.231 252 M 289.047 254.746 C 288.344 256.261, 287.619 260.425, 287.437 264 L 287.106 270.500 287.960 263.858 C 288.430 260.205, 289.342 256.229, 289.988 255.023 C 290.634 253.816, 290.974 252.640, 290.743 252.410 C 290.513 252.180, 289.750 253.231, 289.047 254.746 M 335.558 256.500 C 335.934 258.150, 336.616 261.975, 337.073 265 C 337.901 270.477, 337.903 270.472, 337.488 263.724 C 337.258 259.997, 336.576 256.172, 335.972 255.224 C 335.093 253.844, 335.010 254.098, 335.558 256.500 M 188.069 255.500 C 188.038 256.050, 190.934 264.772, 194.506 274.882 C 198.078 284.992, 201 293.879, 201 294.632 C 201 295.587, 199.641 296, 196.500 296 C 191.708 296, 188 293.528, 188 290.333 C 188 289.417, 187.730 288.937, 187.400 289.266 C 187.071 289.596, 187.330 291.471, 187.978 293.433 L 189.155 297 196.078 297 C 199.885 297, 203 296.826, 203 296.613 C 203 296.134, 190.500 260.448, 189.124 257 C 188.576 255.625, 188.101 254.950, 188.069 255.500 M 207.518 260.866 C 207.150 263.543, 207.333 268.350, 207.925 271.550 C 208.516 274.749, 209 277.510, 209 277.684 C 209 277.858, 209.466 278, 210.035 278 C 210.691 278, 210.621 277.177, 209.842 275.750 C 209.115 274.419, 208.644 269.925, 208.689 264.750 C 208.731 259.938, 208.635 256, 208.476 256 C 208.318 256, 207.887 258.190, 207.518 260.866 M 387.067 261.067 C 385.853 263.887, 385.053 266.386, 385.287 266.621 C 385.522 266.855, 386.683 264.716, 387.867 261.867 C 389.051 259.017, 389.851 256.518, 389.646 256.313 C 389.441 256.107, 388.280 258.247, 387.067 261.067 M 168.612 261.624 C 167.726 264.227, 167.033 266.839, 167.073 267.428 C 167.113 268.018, 168.012 266.061, 169.070 263.080 C 170.128 260.099, 170.821 257.487, 170.609 257.276 C 170.398 257.065, 169.499 259.021, 168.612 261.624 M 176.031 258 C 176.031 258.825, 176.467 260.175, 177 261 C 177.862 262.333, 177.969 262.333, 177.969 261 C 177.969 260.175, 177.533 258.825, 177 258 C 176.138 256.667, 176.031 256.667, 176.031 258 M 398.636 259.780 C 397.470 261.667, 391.956 276.290, 392.287 276.620 C 392.488 276.821, 394.264 272.939, 396.234 267.993 C 399.374 260.107, 400.219 257.219, 398.636 259.780 M 274.300 265 C 274.300 268.025, 274.487 269.262, 274.716 267.750 C 274.945 266.238, 274.945 263.762, 274.716 262.250 C 274.487 260.738, 274.300 261.975, 274.300 265 M 220.286 265.500 C 220.294 268.250, 220.488 269.256, 220.718 267.736 C 220.947 266.216, 220.941 263.966, 220.704 262.736 C 220.467 261.506, 220.279 262.750, 220.286 265.500 M 235 267 L 235 272 245.500 272 C 251.275 272, 256 272.247, 256 272.550 C 256 272.852, 255.313 274.427, 254.474 276.050 C 253.635 277.672, 253.174 279, 253.449 279 C 254.442 279, 257.067 272.917, 256.482 271.971 C 256.152 271.437, 251.363 271, 245.840 271 L 235.799 271 236.157 266.500 C 236.353 264.025, 236.174 262, 235.757 262 C 235.341 262, 235 264.250, 235 267 M 243.750 262.732 C 246.088 262.943, 249.912 262.943, 252.250 262.732 C 254.588 262.522, 252.675 262.349, 248 262.349 C 243.325 262.349, 241.412 262.522, 243.750 262.732 M 400.225 279.250 L 400 297 406.500 297 C 412.583 297, 412.998 296.856, 412.970 294.750 C 412.942 292.741, 412.830 292.687, 411.920 294.250 C 411.167 295.542, 409.611 296, 405.974 296 L 401.047 296 400.748 278.750 L 400.450 261.500 400.225 279.250 M 120.450 274.748 L 120.500 286.500 130 287 L 139.500 287.500 140.118 291 L 140.737 294.500 140.868 290.250 L 141 286 131.032 286 L 121.063 286 120.732 274.498 L 120.400 262.997 120.450 274.748 M 361.446 264.750 C 364.621 273.169, 370.453 286.881, 370.737 286.596 C 371.204 286.129, 361.943 263, 361.289 263 C 361.012 263, 361.083 263.788, 361.446 264.750 M 179.490 267.343 C 181.521 274.557, 182.022 274, 173.500 274 L 165.783 274 166.405 271.250 C 166.925 268.954, 166.846 268.799, 165.930 270.311 C 163.731 273.940, 165.442 275, 173.500 275 C 182.110 275, 183.018 274.211, 180.542 268.882 C 179.678 267.022, 179.204 266.329, 179.490 267.343 M 150.749 277.105 C 149.819 280.013, 149.205 282.539, 149.385 282.718 C 149.958 283.292, 153.181 274.043, 152.803 272.909 C 152.603 272.309, 151.679 274.198, 150.749 277.105 M 221.039 272.882 C 220.975 275.136, 224.916 280.804, 228.145 283.103 C 230.325 284.655, 232.980 285.330, 237.824 285.562 L 244.500 285.883 238.316 285.100 C 229.910 284.035, 225.615 281.159, 222.487 274.500 C 221.712 272.850, 221.061 272.122, 221.039 272.882 M 266.773 277.049 C 265.648 280.618, 263.675 283.881, 261.060 286.500 C 258.863 288.700, 257.051 290.926, 257.033 291.446 C 257.015 291.967, 258.594 290.847, 260.543 288.959 C 264.536 285.088, 269.347 276.038, 268.832 273.364 C 268.645 272.393, 267.718 274.052, 266.773 277.049 M 275.552 274.250 C 277.228 279.736, 279.056 283.056, 282.499 286.868 C 286.284 291.056, 292.717 295.617, 293.598 294.736 C 293.869 294.465, 292.088 293.069, 289.640 291.635 C 284.665 288.719, 278.893 281.433, 277.057 275.750 C 276.390 273.688, 275.624 272, 275.355 272 C 275.086 272, 275.174 273.012, 275.552 274.250 M 335.500 274 C 335.125 275.183, 335.042 276.376, 335.317 276.651 C 335.592 276.926, 336.125 276.183, 336.500 275 C 336.875 273.817, 336.958 272.624, 336.683 272.349 C 336.408 272.074, 335.875 272.817, 335.500 274 M 412.272 277 C 412.272 279.475, 412.467 280.488, 412.706 279.250 C 412.944 278.012, 412.944 275.988, 412.706 274.750 C 412.467 273.512, 412.272 274.525, 412.272 277 M 331.300 282.990 C 327.352 288.956, 322.480 292.755, 315.699 295.154 C 311.818 296.528, 311.387 296.843, 314 296.399 C 320.758 295.250, 330.358 288.076, 333.646 281.718 C 336.058 277.053, 334.764 277.755, 331.300 282.990 M 211.469 281.734 C 215.003 289.033, 224.028 295.471, 232.158 296.492 C 236.453 297.032, 236.443 297.021, 231.230 295.534 C 222.079 292.923, 219.560 291.065, 212.202 281.491 L 209.903 278.500 211.469 281.734 M 108.272 284 C 108.272 286.475, 108.467 287.488, 108.706 286.250 C 108.944 285.012, 108.944 282.988, 108.706 281.750 C 108.467 280.512, 108.272 281.525, 108.272 284 M 387.016 287.961 L 383.775 296 379.539 296 C 375.563 296, 375.193 295.754, 373.495 291.990 C 372.501 289.784, 371.501 288.166, 371.274 288.393 C 371.046 288.620, 371.813 290.674, 372.978 292.956 C 375.049 297.017, 375.194 297.099, 379.751 296.803 L 384.407 296.500 387.779 288.659 C 389.634 284.346, 390.950 280.617, 390.704 280.370 C 390.457 280.124, 388.798 283.540, 387.016 287.961 M 314.500 283.265 C 313.400 283.928, 309.800 284.746, 306.500 285.083 L 300.500 285.695 306 285.806 C 309.707 285.880, 312.641 285.292, 315 284 C 316.925 282.946, 318.050 282.079, 317.500 282.072 C 316.950 282.066, 315.600 282.603, 314.500 283.265 M 159.972 287.052 C 159.368 288.181, 159.019 289.861, 159.197 290.786 C 159.387 291.768, 159.997 290.916, 160.667 288.734 C 161.936 284.598, 161.652 283.912, 159.972 287.052 M 108 294.809 C 108 296.975, 108.187 297, 124.500 297 C 133.575 297, 141.001 296.663, 141.001 296.250 C 141.002 295.837, 134.151 295.636, 125.776 295.802 C 112.237 296.071, 110.409 295.912, 109.275 294.361 C 108.099 292.753, 108 292.788, 108 294.809 M 157.611 294.573 C 157.084 295.945, 155.853 296.160, 150.487 295.818 C 146.919 295.591, 144 295.764, 144 296.203 C 144 296.641, 147.102 297, 150.893 297 C 156.364 297, 157.916 296.661, 158.417 295.357 C 158.763 294.453, 158.867 293.534, 158.647 293.314 C 158.427 293.094, 157.961 293.660, 157.611 294.573 M 251.683 293.650 C 251.325 294.008, 248.888 294.878, 246.266 295.583 C 243.264 296.391, 242.425 296.880, 244 296.906 C 246.441 296.947, 255.562 293.241, 253.417 293.081 C 252.821 293.036, 252.041 293.293, 251.683 293.650 M 296.500 295.993 C 298.411 296.821, 305.784 297.388, 304.917 296.641 C 304.688 296.443, 302.250 296.022, 299.500 295.704 C 296.283 295.332, 295.213 295.435, 296.500 295.993" stroke="none" fill="#3cbae0" fill-rule="evenodd"/><path d="M 246.500 69.616 C 220.816 73.237, 195.859 86.997, 185.696 103.141 C 179.456 113.053, 178.507 119.631, 182.250 127.015 C 185.207 132.849, 189.110 134.999, 197.129 135.211 C 202.712 135.359, 204.591 134.866, 212.326 131.219 C 217.181 128.930, 223.316 125.470, 225.960 123.529 C 228.605 121.588, 231.632 120, 232.688 120 C 234.956 120, 245 124.841, 245 125.934 C 245 127.897, 233.869 134.156, 226.340 136.426 C 222.496 137.585, 221.462 139.747, 223.612 142.128 C 225.501 144.220, 232.481 148.996, 238.927 152.607 C 241.720 154.172, 242.575 155.451, 243.543 159.514 C 244.196 162.256, 245.091 165.359, 245.533 166.409 C 246.254 168.122, 246.005 168.251, 243.106 167.671 C 237.608 166.572, 226.925 161.401, 221.859 157.388 C 219.200 155.282, 215.682 151.399, 214.041 148.759 C 210.731 143.434, 208.712 142.164, 206.490 144.008 C 205.197 145.082, 205.348 145.868, 207.668 150.132 C 214.163 162.065, 228.759 171.122, 247.657 174.945 C 259.731 177.388, 264.318 177.527, 266 175.500 C 267.721 173.426, 266.194 171.799, 259.590 168.673 C 253.881 165.970, 250 161.955, 250 158.752 C 250 156.982, 250.462 156.842, 254.364 157.427 C 260.553 158.355, 271.430 156.385, 275.981 153.512 C 287.300 146.366, 284.916 137.787, 270.580 134.081 C 262.518 131.996, 249.993 137.349, 246.509 144.368 C 245.102 147.200, 242.266 147.463, 238 145.156 C 233.299 142.613, 233.475 140.175, 238.500 138.228 C 240.700 137.376, 244.834 134.715, 247.687 132.316 L 252.874 127.953 258.687 128.887 C 268.821 130.516, 285.039 129.341, 291.500 126.509 C 304.638 120.751, 305.458 120.199, 310.286 113.870 C 314.297 108.611, 313.988 104.099, 309.258 98.863 C 305.687 94.911, 299.386 91.350, 294 90.241 C 287.101 88.821, 274.198 89.203, 267.486 91.025 C 260.906 92.812, 260.423 92.823, 259.169 91.211 C 258.437 90.270, 257.310 88.825, 256.664 88 C 254 84.593, 248.442 81.653, 243.830 81.210 C 235.370 80.397, 227.156 85.322, 223.354 93.488 C 220.321 100.001, 220.392 101.464, 224.108 108.899 C 225.817 112.320, 226.976 115.357, 226.684 115.649 C 225.286 117.047, 214.926 123.354, 210.255 125.651 C 202.882 129.276, 193.448 129.965, 189.883 127.139 C 185.597 123.741, 185.285 118.111, 188.967 110.640 C 191.911 104.666, 198.042 97.302, 203.036 93.744 C 213.343 86.398, 223.083 81.499, 231.500 79.426 C 233.150 79.020, 235.175 78.495, 236 78.260 C 236.825 78.025, 238.625 77.713, 240 77.566 C 241.375 77.420, 243.175 77.042, 244 76.726 C 247.596 75.352, 260.568 74.990, 270.388 75.989 C 303.981 79.406, 328.826 97.440, 334.152 122.274 C 335.436 128.260, 334.798 140.368, 332.997 144.195 C 330.623 149.240, 329.342 148.856, 323.447 141.337 C 318.521 135.051, 307.305 129.188, 301.500 129.864 C 294.638 130.663, 288.531 138.777, 288.804 146.732 C 288.966 151.472, 293.860 156.345, 300.170 158.049 C 304.485 159.214, 318.288 158.862, 322.732 157.474 C 324.564 156.901, 325.164 157.289, 326.077 159.638 C 327.475 163.234, 326.721 172.237, 324.576 177.552 C 322.869 181.783, 318.753 185, 315.046 185 C 311.864 185, 306.835 182.127, 304 178.691 C 292.074 164.235, 287.494 160.497, 280.408 159.434 C 275.395 158.682, 270 161.036, 270 163.974 C 270 165.031, 272.237 168.584, 274.971 171.869 C 281.559 179.785, 288.004 189.833, 288.698 193.271 C 289.006 194.795, 289.650 196.284, 290.129 196.580 C 290.608 196.876, 291 198.471, 291 200.125 C 291 201.778, 291.466 204.002, 292.035 205.066 C 293.289 207.409, 296.827 207.615, 297.679 205.395 C 298.565 203.086, 296.371 194.469, 293.260 188.034 C 290.852 183.052, 284.636 173.272, 283.070 172 C 281.562 170.776, 279.049 166, 279.912 166 C 283.900 166, 289.232 170.334, 296.523 179.500 C 301.263 185.459, 302.362 186.438, 307.210 189.023 C 317.292 194.396, 327.824 188.997, 331.426 176.608 C 333.296 170.172, 333.511 158.911, 331.796 157.196 C 330.857 156.257, 331.489 155.056, 334.665 151.746 C 339.500 146.706, 341.005 141.603, 340.988 130.307 C 340.960 111.863, 332.484 97.141, 314.902 84.998 C 300.113 74.784, 283.934 69.950, 263 69.490 C 255.575 69.326, 248.150 69.383, 246.500 69.616 M 238.016 88.024 C 233.102 89.179, 228 94.984, 228 99.420 C 228 103.210, 229.127 106.483, 231.435 109.399 C 232.875 111.218, 233.204 111.068, 239.219 105.841 C 242.674 102.839, 247.188 99.360, 249.250 98.110 C 251.313 96.860, 253 95.277, 253 94.593 C 253 92.862, 249.056 89.344, 245.685 88.067 C 242.563 86.884, 242.859 86.885, 238.016 88.024 M 270.562 96.611 C 266.747 97.369, 263.273 98.554, 262.844 99.245 C 262.415 99.935, 262.332 102.193, 262.661 104.262 C 263.077 106.875, 262.585 109.873, 261.050 114.083 C 259.835 117.416, 259.087 120.785, 259.389 121.571 C 259.820 122.695, 262.349 122.995, 271.219 122.979 C 283.592 122.956, 291.385 120.961, 299.725 115.681 C 308.041 110.416, 308.825 105.230, 302.016 100.511 C 294.415 95.243, 283.970 93.948, 270.562 96.611 M 249.500 105.533 C 247.850 106.891, 245.037 109.203, 243.250 110.670 C 241.463 112.138, 240 113.959, 240 114.718 C 240 116.180, 247.311 119.941, 250.225 119.978 C 252.540 120.008, 256 112.264, 256 107.055 C 256 102.177, 254.113 101.735, 249.500 105.533 M 298.313 138.343 C 293.506 143.416, 294.162 149.047, 299.825 151.313 C 305.456 153.566, 322 152.520, 322 149.910 C 322 147.972, 313.704 140.035, 309.603 138.050 C 304.131 135.401, 301.024 135.481, 298.313 138.343 M 258.328 141.938 C 253.288 144.226, 249.871 148.673, 252.079 150.070 C 254.327 151.493, 265.716 151.146, 269.567 149.536 C 276.881 146.481, 278.085 142.673, 272.250 141.053 C 266.833 139.548, 263.064 139.788, 258.328 141.938 M 232.500 235.015 C 227.020 236.200, 220.393 239.689, 217.116 243.116 C 210.107 250.444, 206.859 262.111, 209.074 272 C 209.629 274.475, 210.139 277.065, 210.208 277.756 C 210.420 279.882, 219.322 290.285, 222.532 292.159 C 227.463 295.038, 237.611 297.240, 242.321 296.454 C 254.448 294.428, 263.336 287.255, 266.977 276.556 C 269.280 269.790, 269.579 264.667, 267.750 263.333 C 267.063 262.831, 259.750 262.498, 251.500 262.592 L 236.500 262.764 236.193 266.882 L 235.885 271 245.883 271 C 251.498 271, 256.154 271.440, 256.503 272.004 C 257.446 273.531, 253.129 280.524, 249.616 283.161 C 246.995 285.128, 245.307 285.500, 239 285.500 C 232.806 285.500, 230.946 285.105, 228.321 283.232 C 217.748 275.691, 217.363 255.908, 227.650 248.679 C 235.028 243.493, 244.095 243.821, 250.746 249.515 C 254.344 252.594, 255.469 253, 260.409 253 C 263.646 253, 266 252.558, 266 251.950 C 266 248.385, 258.688 240.210, 252.435 236.784 C 249.134 234.976, 237.471 233.941, 232.500 235.015 M 298.987 235.395 C 288.734 237.531, 280.334 244.808, 277.027 254.421 C 273.333 265.157, 274.817 274.580, 281.715 284.189 C 288.745 293.983, 302.786 298.862, 314.303 295.514 C 324.155 292.650, 331.885 285.105, 335.447 274.876 C 337.399 269.269, 337.393 264.305, 335.423 256.705 C 331.284 240.730, 316.076 231.835, 298.987 235.395 M 108.888 256.250 C 108.827 267.938, 108.708 280.875, 108.626 285 C 108.394 296.533, 107.606 296, 124.869 296 C 133.007 296, 139.895 295.771, 140.175 295.492 C 140.454 295.213, 140.410 293.300, 140.078 291.242 L 139.473 287.500 129.986 287 L 120.500 286.500 120.411 262.500 C 120.363 249.300, 120.175 237.713, 119.995 236.750 C 119.731 235.343, 118.621 235, 114.333 235 L 109 235 108.888 256.250 M 166.187 236.750 C 165.701 237.713, 163.858 242.775, 162.091 248 C 160.324 253.225, 158.468 258.400, 157.966 259.500 C 156.674 262.334, 154.007 269.958, 153.069 273.500 C 152.632 275.150, 151.087 279.390, 149.637 282.922 C 148.187 286.455, 147 290.077, 147 290.972 C 147 291.868, 146.475 293.125, 145.833 293.767 C 144.159 295.441, 146.644 296.190, 152.608 295.810 C 157.029 295.528, 157.542 295.232, 158.354 292.500 C 160.787 284.318, 159.548 284.908, 173.643 285.220 L 186.302 285.500 187.670 289.500 C 188.423 291.700, 189.791 294.063, 190.711 294.750 C 193.042 296.493, 201 296.408, 201 294.640 C 201 293.311, 190.320 261.948, 185.449 248.975 C 184.102 245.387, 183 241.989, 183 241.425 C 183 240.860, 182.438 239.188, 181.750 237.707 C 180.575 235.178, 180.095 235.015, 173.785 235.008 C 168.388 235.002, 166.897 235.343, 166.187 236.750 M 347.235 265.250 L 347.500 295.500 351.886 295.814 C 354.298 295.987, 356.643 295.757, 357.097 295.303 C 357.551 294.849, 357.977 286.495, 358.045 276.739 C 358.113 266.983, 358.468 259.011, 358.834 259.025 C 359.801 259.060, 362.667 265.100, 367.128 276.500 C 369.281 282, 372.009 288.637, 373.192 291.250 C 375.256 295.810, 375.508 296, 379.497 296 L 383.653 296 387.766 286.250 C 390.029 280.887, 393.292 272.913, 395.017 268.530 C 396.743 264.146, 398.422 260.126, 398.750 259.596 C 400.165 257.306, 400.864 263.611, 400.930 279.250 L 401 296 405.941 296 C 408.733 296, 411.208 295.473, 411.631 294.788 C 412.868 292.786, 413.267 240.832, 412.069 237.682 C 411.055 235.014, 410.772 234.916, 404.951 235.202 L 398.889 235.500 396.339 241.500 C 394.936 244.800, 392.112 251.550, 390.063 256.500 C 388.014 261.450, 384.753 268.831, 382.817 272.903 L 379.297 280.307 376.572 274.403 C 372.492 265.565, 371.362 262.939, 369.517 258 C 367.620 252.921, 365.990 249.063, 362.232 240.750 L 359.632 235 353.301 235 L 346.971 235 347.235 265.250 M 297.613 246.437 C 284.049 252.427, 283.590 276.669, 296.907 283.680 C 310.927 291.061, 325.872 280.835, 324.817 264.582 C 324.313 256.821, 321.559 251.264, 316.500 247.803 C 313.204 245.548, 311.445 245.075, 306.500 245.114 C 303.200 245.141, 299.201 245.736, 297.613 246.437 M 171.527 254.144 C 168.139 262.460, 164.933 273.083, 165.524 274.039 C 166.440 275.521, 180.969 275.259, 181.516 273.750 C 181.972 272.492, 176.347 255.102, 174.365 251.644 C 173.425 250.003, 173.097 250.292, 171.527 254.144" stroke="none" fill="#0abbef" fill-rule="evenodd"/></svg>